<svg width="61" height="49" viewBox="0 0 61 49" fill="none" xmlns="http://www.w3.org/2000/svg">
<path d="M60.6326 24.4998C60.6326 29.9366 58.2439 35.2052 53.8734 39.4079C49.503 43.6106 43.4212 46.4873 36.6644 47.548C29.9076 48.6087 22.8938 47.7876 16.818 45.2247C10.7423 42.6618 5.98058 38.5157 3.3442 33.4928C0.707824 28.4698 0.359906 22.8809 2.35973 17.6782C4.35956 12.4755 8.58339 7.98096 14.3115 4.96044C20.0397 1.93992 26.9178 0.580274 33.7738 1.11317C40.6298 1.64607 47.0396 4.03854 51.911 7.88294L48.6564 10.4514C44.5379 7.20124 39.1189 5.17857 33.3226 4.72805C27.5263 4.27752 21.7114 5.427 16.8687 7.98064C12.0259 10.5343 8.45498 14.3341 6.76426 18.7326C5.07355 23.1311 5.36769 27.8562 7.59656 32.1027C9.82544 36.3493 13.8511 39.8545 18.9877 42.0213C24.1243 44.188 30.054 44.8822 35.7664 43.9854C41.4788 43.0887 46.6206 40.6566 50.3155 37.1035C54.0104 33.5504 56.0299 29.0962 56.0299 24.4998H60.6326Z" fill="white"/>
<path d="M20.1044 39.8055C15.6174 37.8427 12.1316 34.7127 10.2409 30.949C8.3503 27.1853 8.17178 23.0207 9.73581 19.1647C11.2998 15.3088 14.5096 12.0001 18.8183 9.80244C23.127 7.60478 28.2679 6.65412 33.3652 7.11245C38.4625 7.57077 43.2007 9.40971 46.7725 12.3159C50.3443 15.2222 52.5287 19.0159 52.9536 23.0507C53.3784 27.0854 52.0174 31.1116 49.1023 34.4432C46.1873 37.7749 41.8987 40.2057 36.9672 41.3217L36.0224 38.7215C40.1916 37.7781 43.8174 35.7229 46.2818 32.9063C48.7463 30.0896 49.897 26.6858 49.5378 23.2747C49.1786 19.8635 47.3319 16.6562 44.3121 14.1992C41.2924 11.7422 37.2866 10.1875 32.9772 9.80001C28.6678 9.41253 24.3215 10.2162 20.6788 12.0742C17.0361 13.9322 14.3225 16.7294 13.0002 19.9894C11.6779 23.2493 11.8288 26.7702 13.4273 29.9522C15.0257 33.1341 17.9727 35.7802 21.7661 37.4397L20.1044 39.8055Z" fill="white"/>
<path d="M30.8551 11.9999C34.5195 11.9999 38.0706 13.0026 40.9033 14.8372C43.736 16.6718 45.6749 19.2248 46.3898 22.0612C47.1047 24.8975 46.5513 27.8417 44.8239 30.3922C43.0965 32.9426 40.302 34.9415 36.9164 36.0482C33.5309 37.1548 29.7639 37.3009 26.2572 36.4614C22.7505 35.6219 19.7212 33.8489 17.6853 31.4443C15.6495 29.0398 14.733 26.1526 15.0922 23.2746C15.4514 20.3966 17.0639 17.7059 19.6551 15.661L21.3863 17.0272C19.1956 18.756 17.8323 21.0308 17.5287 23.4639C17.225 25.8971 17.9998 28.338 19.721 30.3709C21.4422 32.4038 24.0033 33.9028 26.9679 34.6125C29.9326 35.3222 33.1173 35.1987 35.9795 34.2631C38.8418 33.3275 41.2043 31.6376 42.6648 29.4814C44.1252 27.3252 44.593 24.836 43.9886 22.4381C43.3842 20.0402 41.745 17.8818 39.3501 16.3308C36.9553 14.7797 33.9531 13.932 30.8551 13.932V11.9999Z" fill="white"/>
<path d="M21.3897 20.444C22.5787 18.7158 24.4902 17.3664 26.7985 16.6257C29.1069 15.8851 31.6692 15.799 34.049 16.3822C36.4287 16.9653 38.4787 18.1816 39.8495 19.8238C41.2203 21.466 41.8271 23.4325 41.5667 25.3882C41.3062 27.344 40.1945 29.1679 38.421 30.5493C36.6475 31.9307 34.322 32.7841 31.8406 32.964C29.3592 33.144 26.8755 32.6393 24.8127 31.5361C22.75 30.4329 21.2357 28.7994 20.528 26.9139L22.2731 26.5059C22.8612 28.0728 24.1196 29.4303 25.8338 30.3471C27.548 31.2639 29.612 31.6833 31.674 31.5337C33.7361 31.3842 35.6687 30.675 37.1425 29.5271C38.6163 28.3791 39.5401 26.8634 39.7566 25.2381C39.973 23.6129 39.4687 21.9787 38.3296 20.614C37.1904 19.2493 35.4869 18.2385 33.5093 17.7539C31.5317 17.2693 29.4023 17.3408 27.484 17.9563C25.5657 18.5718 23.9772 19.6932 22.9891 21.1293L21.3897 20.444Z" fill="white"/>
<path d="M35.5683 27.0325C34.8259 27.893 33.7283 28.5238 32.4626 28.8173C31.1969 29.1108 29.8414 29.0489 28.6271 28.6421C27.4127 28.2353 26.4147 27.5088 25.803 26.5864C25.1913 25.664 25.0038 24.6028 25.2725 23.5835C25.5411 22.5642 26.2493 21.65 27.2763 20.9966C28.3033 20.3432 29.5857 19.991 30.9048 20.0001C32.224 20.0092 33.4983 20.379 34.5107 21.0464C35.5232 21.7139 36.211 22.6377 36.4571 23.6605L35.4084 23.8177C35.2084 22.9863 34.6493 22.2354 33.8264 21.6929C33.0035 21.1504 31.9677 20.8498 30.8955 20.8424C29.8233 20.8351 28.781 21.1213 27.9462 21.6524C27.1115 22.1835 26.5359 22.9266 26.3175 23.755C26.0992 24.5835 26.2516 25.4461 26.7487 26.1958C27.2459 26.9456 28.0571 27.5361 29.0441 27.8667C30.0312 28.1973 31.1329 28.2477 32.1617 28.0091C33.1904 27.7705 34.0825 27.2578 34.686 26.5584L35.5683 27.0325Z" fill="white"/>
<path d="M29.8499 22.129C30.5449 21.9455 31.2991 21.9579 31.9839 22.1639C32.6687 22.37 33.2417 22.7571 33.6054 23.2593C33.969 23.7614 34.1008 24.3476 33.9783 24.9178C33.8558 25.4881 33.4865 26.0071 32.9334 26.3866C32.3802 26.766 31.6775 26.9824 30.9449 26.9988C30.2123 27.0152 29.4952 26.8306 28.9157 26.4765C28.3362 26.1224 27.9302 25.6207 27.7669 25.0569C27.6036 24.493 27.6931 23.902 28.0201 23.3843L29.131 23.8215C28.9322 24.1362 28.8777 24.4957 28.977 24.8386C29.0764 25.1815 29.3233 25.4866 29.6757 25.7019C30.0281 25.9173 30.4642 26.0295 30.9097 26.0195C31.3552 26.0096 31.7826 25.878 32.1189 25.6472C32.4553 25.4165 32.6799 25.1008 32.7544 24.754C32.8289 24.4072 32.7488 24.0508 32.5276 23.7454C32.3065 23.44 31.958 23.2046 31.5415 23.0793C31.1251 22.954 30.6665 22.9465 30.2438 23.0581L29.8499 22.129Z" fill="white"/>
<ellipse cx="30.8551" cy="24.4998" rx="0.633565" ry="0.499995" transform="rotate(-180 30.8551 24.4998)" fill="white"/>
</svg>
